{
  "accessors": [
    {
      "bufferView": 2,
      "componentType": 5126,
      "count": 4299,
      "max": [0.8561646342277527, 2.1325411796569824, 0.6771663427352905],
      "min": [-0.8561646342277527, -2.2140939235687256, -0.4799061119556427],
      "type": "VEC3"
    },
    {
      "bufferView": 2,
      "byteOffset": 51588,
      "componentType": 5126,
      "count": 4299,
      "max": [1.0, 1.0, 1.0],
      "min": [-1.0, -0.9996148943901062, -1.0],
      "type": "VEC3"
    },
    {
      "bufferView": 1,
      "componentType": 5126,
      "count": 4299,
      "max": [0.0, 0.0],
      "min": [0.0, 0.0],
      "type": "VEC2"
    },
    {
      "bufferView": 0,
      "componentType": 5125,
      "count": 13074,
      "type": "SCALAR"
    },
    {
      "bufferView": 2,
      "byteOffset": 103176,
      "componentType": 5126,
      "count": 2247,
      "max": [0.8435335159301758, 2.091642379760742, 0.6238222122192383],
      "min": [-0.8435335159301758, -2.112891674041748, -0.5662338733673096],
      "type": "VEC3"
    },
    {
      "bufferView": 2,
      "byteOffset": 130140,
      "componentType": 5126,
      "count": 2247,
      "max": [1.0, 1.0, 1.0],
      "min": [-1.0, -1.0, -1.0],
      "type": "VEC3"
    },
    {
      "bufferView": 1,
      "byteOffset": 34392,
      "componentType": 5126,
      "count": 2247,
      "max": [1.0, 1.0],
      "min": [0.0, 0.0],
      "type": "VEC2"
    },
    {
      "bufferView": 0,
      "byteOffset": 52296,
      "componentType": 5125,
      "count": 7392,
      "type": "SCALAR"
    },
    {
      "bufferView": 2,
      "byteOffset": 157104,
      "componentType": 5126,
      "count": 1365,
      "max": [0.8449041843414307, 2.068781614303589, 0.6583585739135742],
      "min": [-0.8449041843414307, -2.1836116313934326, -0.47375982999801636],
      "type": "VEC3"
    },
    {
      "bufferView": 2,
      "byteOffset": 173484,
      "componentType": 5126,
      "count": 1365,
      "max": [1.0, 1.0, 0.9945307374000549],
      "min": [-1.0, -1.0, -0.9999970197677612],
      "type": "VEC3"
    },
    {
      "bufferView": 1,
      "byteOffset": 52368,
      "componentType": 5126,
      "count": 1365,
      "max": [0.0, 0.0],
      "min": [0.0, 0.0],
      "type": "VEC2"
    },
    {
      "bufferView": 0,
      "byteOffset": 81864,
      "componentType": 5125,
      "count": 3366,
      "type": "SCALAR"
    },
    {
      "bufferView": 2,
      "byteOffset": 189864,
      "componentType": 5126,
      "count": 2100,
      "max": [0.8474539518356323, 2.0312838554382324, 0.00203704833984375],
      "min": [-0.8474539518356323, -2.021526336669922, -0.49640899896621704],
      "type": "VEC3"
    },
    {
      "bufferView": 2,
      "byteOffset": 215064,
      "componentType": 5126,
      "count": 2100,
      "max": [1.0, 1.0, 1.0],
      "min": [-1.0, -1.0, -1.0],
      "type": "VEC3"
    },
    {
      "bufferView": 1,
      "byteOffset": 63288,
      "componentType": 5126,
      "count": 2100,
      "max": [1.0, 1.0],
      "min": [0.0, 0.0],
      "type": "VEC2"
    },
    {
      "bufferView": 0,
      "byteOffset": 95328,
      "componentType": 5125,
      "count": 6738,
      "type": "SCALAR"
    },
    {
      "bufferView": 2,
      "byteOffset": 240264,
      "componentType": 5126,
      "count": 176,
      "max": [0.5793952345848083, 1.9716389179229736, 0.2911485433578491],
      "min": [-0.5793952345848083, -1.9679001569747925, -0.22723954916000366],
      "type": "VEC3"
    },
    {
      "bufferView": 2,
      "byteOffset": 242376,
      "componentType": 5126,
      "count": 176,
      "max": [0.8209488987922668, 0.6437225937843323, 0.7652632594108582],
      "min": [-0.8209500908851624, -0.9831754565238953, -0.8545548319816589],
      "type": "VEC3"
    },
    {
      "bufferView": 1,
      "byteOffset": 80088,
      "componentType": 5126,
      "count": 176,
      "max": [0.0, 0.0],
      "min": [0.0, 0.0],
      "type": "VEC2"
    },
    {
      "bufferView": 0,
      "byteOffset": 122280,
      "componentType": 5125,
      "count": 576,
      "type": "SCALAR"
    },
    {
      "bufferView": 2,
      "byteOffset": 244488,
      "componentType": 5126,
      "count": 328,
      "max": [0.6678067445755005, 2.019375801086426, 0.29114794731140137],
      "min": [-0.6678067445755005, -2.0111780166625977, -0.30727091431617737],
      "type": "VEC3"
    },
    {
      "bufferView": 2,
      "byteOffset": 248424,
      "componentType": 5126,
      "count": 328,
      "max": [0.8674421906471252, 0.9990777969360352, 0.9066920876502991],
      "min": [-0.867442786693573, -0.9885903000831604, -0.7726656198501587],
      "type": "VEC3"
    },
    {
      "bufferView": 1,
      "byteOffset": 81496,
      "componentType": 5126,
      "count": 328,
      "max": [0.0, 0.0],
      "min": [0.0, 0.0],
      "type": "VEC2"
    },
    {
      "bufferView": 0,
      "byteOffset": 124584,
      "componentType": 5125,
      "count": 1260,
      "type": "SCALAR"
    },
    {
      "bufferView": 2,
      "byteOffset": 252360,
      "componentType": 5126,
      "count": 193,
      "max": [0.8238950967788696, 1.649367094039917, 0.6017285585403442],
      "min": [-0.8238950967788696, -0.7352023124694824, 0.2786867320537567],
      "type": "VEC3"
    },
    {
      "bufferView": 2,
      "byteOffset": 254676,
      "componentType": 5126,
      "count": 193,
      "max": [0.8849883079528809, 0.8849226236343384, 0.9755537509918213],
      "min": [-0.8849883079528809, -0.444003701210022, -0.011375591158866882],
      "type": "VEC3"
    },
    {
      "bufferView": 1,
      "byteOffset": 84120,
      "componentType": 5126,
      "count": 193,
      "max": [0.0, 0.0],
      "min": [0.0, 0.0],
      "type": "VEC2"
    },
    {
      "bufferView": 0,
      "byteOffset": 129624,
      "componentType": 5125,
      "count": 684,
      "type": "SCALAR"
    },
    {
      "bufferView": 2,
      "byteOffset": 256992,
      "componentType": 5126,
      "count": 192,
      "max": [0.4859611392021179, 2.0084283351898193, 0.29114845395088196],
      "min": [-0.4859611392021179, 1.9482100009918213, 0.21521253883838654],
      "type": "VEC3"
    },
    {
      "bufferView": 2,
      "byteOffset": 259296,
      "componentType": 5126,
      "count": 192,
      "max": [0.7620023488998413, 0.995269775390625, 0.8627053499221802],
      "min": [-0.7620007395744324, 0.47185391187667847, -0.5273609757423401],
      "type": "VEC3"
    },
    {
      "bufferView": 1,
      "byteOffset": 85664,
      "componentType": 5126,
      "count": 192,
      "max": [0.0, 0.0],
      "min": [0.0, 0.0],
      "type": "VEC2"
    },
    {
      "bufferView": 0,
      "byteOffset": 132360,
      "componentType": 5125,
      "count": 936,
      "type": "SCALAR"
    },
    {
      "bufferView": 2,
      "byteOffset": 261600,
      "componentType": 5126,
      "count": 160,
      "max": [0.5832749605178833, 2.025897979736328, -0.15450501441955566],
      "min": [0.4113243520259857, 1.6199581623077393, -0.326455682516098],
      "type": "VEC3"
    },
    {
      "bufferView": 2,
      "byteOffset": 263520,
      "componentType": 5126,
      "count": 160,
      "max": [0.9978975653648376, 1.0, 1.0],
      "min": [-0.9978974461555481, -2.9189839551690966e-5, -1.0],
      "type": "VEC3"
    },
    {
      "bufferView": 1,
      "byteOffset": 87200,
      "componentType": 5126,
      "count": 160,
      "max": [0.0, 0.0],
      "min": [0.0, 0.0],
      "type": "VEC2"
    },
    {
      "bufferView": 0,
      "byteOffset": 136104,
      "componentType": 5125,
      "count": 480,
      "type": "SCALAR"
    },
    {
      "bufferView": 2,
      "byteOffset": 265440,
      "componentType": 5126,
      "count": 16,
      "max": [0.5455489754676819, 2.013231039047241, -0.19214314222335815],
      "min": [0.44905033707618713, 1.995653510093689, -0.28881755471229553],
      "type": "VEC3"
    },
    {
      "bufferView": 2,
      "byteOffset": 265632,
      "componentType": 5126,
      "count": 16,
      "max": [0.0, 0.9838750958442688, -0.17885741591453552],
      "min": [-2.434498355796677e-6, 0.9838369488716125, -0.17906679213047028],
      "type": "VEC3"
    },
    {
      "bufferView": 1,
      "byteOffset": 88480,
      "componentType": 5126,
      "count": 16,
      "max": [0.0, 0.0],
      "min": [0.0, 0.0],
      "type": "VEC2"
    },
    {
      "bufferView": 0,
      "byteOffset": 138024,
      "componentType": 5125,
      "count": 42,
      "type": "SCALAR"
    }
  ],
  "asset": {
    "extras": {
      "author": "Barbo (https://sketchfab.com/barbo-autos)",
      "license": "CC-BY-4.0 (http://creativecommons.org/licenses/by/4.0/)",
      "source": "https://sketchfab.com/3d-models/lowpoly-abflug-supra-s900-no-textures-7790a19087044732b96ef34369ac8f21",
      "title": "Lowpoly Abflug Supra S900 - No Textures"
    },
    "generator": "Sketchfab-12.67.0",
    "version": "2.0"
  },
  "bufferViews": [
    {
      "buffer": 0,
      "byteLength": 138192,
      "name": "floatBufferViews",
      "target": 34963
    },
    {
      "buffer": 0,
      "byteLength": 88608,
      "byteOffset": 138192,
      "byteStride": 8,
      "name": "floatBufferViews",
      "target": 34962
    },
    {
      "buffer": 0,
      "byteLength": 265824,
      "byteOffset": 226800,
      "byteStride": 12,
      "name": "floatBufferViews",
      "target": 34962
    }
  ],
  "buffers": [
    {
      "byteLength": 492624,
      "uri": "scene.bin"
    }
  ],
  "extensionsUsed": ["KHR_materials_clearcoat"],
  "materials": [
    {
      "doubleSided": true,
      "extensions": {
        "KHR_materials_clearcoat": {
          "clearcoatFactor": 1.0,
          "clearcoatRoughnessFactor": 0.0834291593
        }
      },
      "name": "Paint",
      "pbrMetallicRoughness": {
        "baseColorFactor": [0.0521681, 0.0207288, 0.178862, 1.0],
        "metallicFactor": 0.4,
        "roughnessFactor": 0.25
      }
    },
    {
      "doubleSided": true,
      "name": "Plastic",
      "pbrMetallicRoughness": {
        "baseColorFactor": [0.0102997008, 0.0102997008, 0.0102997008, 1.0],
        "metallicFactor": 0.9627322488,
        "roughnessFactor": 0.6361339584
      }
    },
    {
      "doubleSided": true,
      "name": "Black",
      "pbrMetallicRoughness": {
        "baseColorFactor": [0.0, 0.0, 0.0, 1.0]
      }
    },
    {
      "doubleSided": true,
      "name": "Chrome",
      "pbrMetallicRoughness": {
        "baseColorFactor": [0.8, 0.8, 0.8, 1.0],
        "roughnessFactor": 0.1525172591752235
      }
    },
    {
      "doubleSided": true,
      "name": "Indicator",
      "pbrMetallicRoughness": {
        "baseColorFactor": [0.8, 0.140065, 0.0, 1.0],
        "metallicFactor": 0.5,
        "roughnessFactor": 0.0
      }
    },
    {
      "doubleSided": true,
      "name": "Lights",
      "pbrMetallicRoughness": {
        "metallicFactor": 0.7,
        "roughnessFactor": 0.0897098956
      }
    },
    {
      "doubleSided": true,
      "name": "Glass",
      "pbrMetallicRoughness": {
        "baseColorFactor": [0.0, 0.0, 0.0, 1.0],
        "metallicFactor": 0.0,
        "roughnessFactor": 0.0
      }
    },
    {
      "doubleSided": true,
      "name": "Taillights",
      "pbrMetallicRoughness": {
        "baseColorFactor": [0.8, 0.0, 0.00570872, 1.0],
        "metallicFactor": 0.5,
        "roughnessFactor": 0.0
      }
    }
  ],
  "meshes": [
    {
      "name": "car_abflug.001_Paint_0",
      "primitives": [
        {
          "attributes": {
            "NORMAL": 1,
            "POSITION": 0,
            "TEXCOORD_0": 2
          },
          "indices": 3,
          "material": 0,
          "mode": 4
        }
      ]
    },
    {
      "name": "car_abflug.001_Plastic_0",
      "primitives": [
        {
          "attributes": {
            "NORMAL": 5,
            "POSITION": 4,
            "TEXCOORD_0": 6
          },
          "indices": 7,
          "material": 1,
          "mode": 4
        }
      ]
    },
    {
      "name": "car_abflug.001_Black_0",
      "primitives": [
        {
          "attributes": {
            "NORMAL": 9,
            "POSITION": 8,
            "TEXCOORD_0": 10
          },
          "indices": 11,
          "material": 2,
          "mode": 4
        }
      ]
    },
    {
      "name": "car_abflug.001_Chrome_0",
      "primitives": [
        {
          "attributes": {
            "NORMAL": 13,
            "POSITION": 12,
            "TEXCOORD_0": 14
          },
          "indices": 15,
          "material": 3,
          "mode": 4
        }
      ]
    },
    {
      "name": "car_abflug.001_Indicator_0",
      "primitives": [
        {
          "attributes": {
            "NORMAL": 17,
            "POSITION": 16,
            "TEXCOORD_0": 18
          },
          "indices": 19,
          "material": 4,
          "mode": 4
        }
      ]
    },
    {
      "name": "car_abflug.001_Lights_0",
      "primitives": [
        {
          "attributes": {
            "NORMAL": 21,
            "POSITION": 20,
            "TEXCOORD_0": 22
          },
          "indices": 23,
          "material": 5,
          "mode": 4
        }
      ]
    },
    {
      "name": "car_abflug.001_Glass_0",
      "primitives": [
        {
          "attributes": {
            "NORMAL": 25,
            "POSITION": 24,
            "TEXCOORD_0": 26
          },
          "indices": 27,
          "material": 6,
          "mode": 4
        }
      ]
    },
    {
      "name": "car_abflug.001_Taillights_0",
      "primitives": [
        {
          "attributes": {
            "NORMAL": 29,
            "POSITION": 28,
            "TEXCOORD_0": 30
          },
          "indices": 31,
          "material": 7,
          "mode": 4
        }
      ]
    },
    {
      "name": "Plane.003_Chrome_0",
      "primitives": [
        {
          "attributes": {
            "NORMAL": 33,
            "POSITION": 32,
            "TEXCOORD_0": 34
          },
          "indices": 35,
          "material": 3,
          "mode": 4
        }
      ]
    },
    {
      "name": "Plane.003_Black_0",
      "primitives": [
        {
          "attributes": {
            "NORMAL": 37,
            "POSITION": 36,
            "TEXCOORD_0": 38
          },
          "indices": 39,
          "material": 2,
          "mode": 4
        }
      ]
    }
  ],
  "nodes": [
    {
      "children": [1],
      "matrix": [1.0, 0.0, 0.0, 0.0, 0.0, 2.220446049250313e-16, -1.0, 0.0, 0.0, 1.0, 2.220446049250313e-16, 0.0, 0.0, 0.0, 0.0, 1.0],
      "name": "Sketchfab_model"
    },
    {
      "children": [2],
      "matrix": [1.0, 0.0, 0.0, 0.0, 0.0, 0.0, 1.0, 0.0, 0.0, -1.0, 0.0, 0.0, 0.0, 0.0, 0.0, 1.0],
      "name": "55e07ee7758244b084e3a1e331b3fa61.fbx"
    },
    {
      "children": [3, 12],
      "name": "RootNode"
    },
    {
      "children": [4, 5, 6, 7, 8, 9, 10, 11],
      "matrix": [100.0, 0.0, 0.0, 0.0, 0.0, -1.629206793918314e-5, -99.99999999999868, 0.0, 0.0, 99.99999999999868, -1.629206793918314e-5, 0.0, 0.0, 58.65434265136719, 0.0, 1.0],
      "name": "car_abflug.001"
    },
    {
      "mesh": 0,
      "name": "car_abflug.001_Paint_0"
    },
    {
      "mesh": 1,
      "name": "car_abflug.001_Plastic_0"
    },
    {
      "mesh": 2,
      "name": "car_abflug.001_Black_0"
    },
    {
      "mesh": 3,
      "name": "car_abflug.001_Chrome_0"
    },
    {
      "mesh": 4,
      "name": "car_abflug.001_Indicator_0"
    },
    {
      "mesh": 5,
      "name": "car_abflug.001_Lights_0"
    },
    {
      "mesh": 6,
      "name": "car_abflug.001_Glass_0"
    },
    {
      "mesh": 7,
      "name": "car_abflug.001_Taillights_0"
    },
    {
      "children": [13, 14],
      "matrix": [100.0, 0.0, 0.0, 0.0, 0.0, -1.629206793918314e-5, -99.99999999999868, 0.0, 0.0, 99.99999999999868, -1.629206793918314e-5, 0.0, 0.0, 58.65434265136719, 0.0, 1.0],
      "name": "Plane.003"
    },
    {
      "mesh": 8,
      "name": "Plane.003_Chrome_0"
    },
    {
      "mesh": 9,
      "name": "Plane.003_Black_0"
    }
  ],
  "scene": 0,
  "scenes": [
    {
      "name": "Sketchfab_Scene",
      "nodes": [0]
    }
  ]
}
